Monda---0_xx788_22.ufo
<glyph name="eight" format="1">
  <advance width="1091"/>
  <unicode hex="0038"/>
  <outline>
    <contour>
      <point x="546" y="889" type="curve" smooth="yes"/>
      <point x="378" y="889"/>
      <point x="375" y="1054"/>
      <point x="375" y="1131" type="curve" smooth="yes"/>
      <point x="375" y="1188"/>
      <point x="396" y="1292"/>
      <point x="546" y="1292" type="curve" smooth="yes"/>
      <point x="698" y="1292"/>
      <point x="714" y="1186"/>
      <point x="714" y="1131" type="curve" smooth="yes"/>
      <point x="714" y="1055"/>
      <point x="714" y="889"/>
    </contour>
    <contour>
      <point x="177" y="788" type="curve"/>
      <point x="66" y="699"/>
      <point x="50" y="571"/>
      <point x="50" y="437" type="curve" smooth="yes"/>
      <point x="50" y="165"/>
      <point x="152" y="-26"/>
      <point x="546" y="-26" type="curve" smooth="yes"/>
      <point x="941" y="-26"/>
      <point x="1042" y="164"/>
      <point x="1042" y="437" type="curve" smooth="yes"/>
      <point x="1042" y="572"/>
      <point x="1023" y="699"/>
      <point x="913" y="788" type="curve"/>
      <point x="996" y="872"/>
      <point x="1021" y="992"/>
      <point x="1021" y="1106" type="curve" smooth="yes"/>
      <point x="1021" y="1351"/>
      <point x="900" y="1519"/>
      <point x="546" y="1519" type="curve" smooth="yes"/>
      <point x="193" y="1519"/>
      <point x="68" y="1353"/>
      <point x="68" y="1106" type="curve" smooth="yes"/>
      <point x="68" y="992"/>
      <point x="95" y="872"/>
    </contour>
    <contour>
      <point x="546" y="208" type="curve" smooth="yes"/>
      <point x="333" y="208"/>
      <point x="330" y="340"/>
      <point x="330" y="420" type="curve" smooth="yes"/>
      <point x="330" y="511"/>
      <point x="352" y="665"/>
      <point x="546" y="665" type="curve" smooth="yes"/>
      <point x="741" y="665"/>
      <point x="761" y="511"/>
      <point x="761" y="420" type="curve" smooth="yes"/>
      <point x="761" y="341"/>
      <point x="760" y="208"/>
    </contour>
  </outline>
</glyph>
<glyph name="L" format="1">
  <advance width="1048"/>
  <unicode hex="004C"/>
  <outline>
    <contour>
      <point x="155" y="0" type="line"/>
      <point x="990" y="0" type="line"/>
      <point x="990" y="266" type="line"/>
      <point x="494" y="266" type="line"/>
      <point x="494" y="1490" type="line"/>
      <point x="155" y="1490" type="line"/>
    </contour>
  </outline>
</glyph>
<glyph name="O" format="1">
  <advance width="1539"/>
  <unicode hex="004F"/>
  <outline>
    <contour>
      <point x="1063" y="453" type="line"/>
      <point x="1063" y="275"/>
      <point x="991" y="237"/>
      <point x="781" y="237" type="curve" smooth="yes"/>
      <point x="574" y="237"/>
      <point x="476" y="274"/>
      <point x="476" y="453" type="curve" smooth="yes"/>
      <point x="476" y="1034" type="line" smooth="yes"/>
      <point x="476" y="1212"/>
      <point x="576" y="1252"/>
      <point x="781" y="1252" type="curve" smooth="yes"/>
      <point x="988" y="1252"/>
      <point x="1063" y="1206"/>
      <point x="1063" y="1034" type="curve" smooth="yes"/>
    </contour>
    <contour>
      <point x="1402" y="504" type="curve" smooth="yes"/>
      <point x="1402" y="977" type="line" smooth="yes"/>
      <point x="1402" y="1272"/>
      <point x="1311" y="1518"/>
      <point x="781" y="1518" type="curve"/>
      <point x="227" y="1518"/>
      <point x="137" y="1288"/>
      <point x="137" y="993" type="curve" smooth="yes"/>
      <point x="137" y="487" type="line" smooth="yes"/>
      <point x="137" y="200"/>
      <point x="230" y="-29"/>
      <point x="781" y="-29" type="curve"/>
      <point x="1308" y="-29"/>
      <point x="1402" y="217"/>
    </contour>
  </outline>
</glyph>
<glyph name="P" format="1">
  <advance width="1316"/>
  <unicode hex="0050"/>
  <outline>
    <contour>
      <point x="494" y="802" type="line"/>
      <point x="494" y="1252" type="line"/>
      <point x="772" y="1252" type="line" smooth="yes"/>
      <point x="894" y="1252"/>
      <point x="918" y="1144"/>
      <point x="918" y="1032" type="curve" smooth="yes"/>
      <point x="918" y="911"/>
      <point x="900" y="802"/>
      <point x="760" y="802" type="curve" smooth="yes"/>
    </contour>
    <contour>
      <point x="155" y="0" type="line"/>
      <point x="494" y="0" type="line"/>
      <point x="494" y="556" type="line"/>
      <point x="694" y="556" type="line" smooth="yes"/>
      <point x="1142" y="556"/>
      <point x="1230" y="695"/>
      <point x="1230" y="1035" type="curve" smooth="yes"/>
      <point x="1230" y="1368"/>
      <point x="1098" y="1490"/>
      <point x="735" y="1490" type="curve" smooth="yes"/>
      <point x="155" y="1490" type="line"/>
    </contour>
  </outline>
</glyph>
<glyph name="U" format="1">
  <advance width="1532"/>
  <unicode hex="0055"/>
  <outline>
    <contour>
      <point x="1047" y="1490" type="line"/>
      <point x="1047" y="457" type="line" smooth="yes"/>
      <point x="1047" y="297"/>
      <point x="985" y="237"/>
      <point x="775" y="237" type="curve" smooth="yes"/>
      <point x="568" y="237"/>
      <point x="485" y="293"/>
      <point x="485" y="457" type="curve" smooth="yes"/>
      <point x="485" y="1490" type="line"/>
      <point x="146" y="1490" type="line"/>
      <point x="146" y="466" type="line" smooth="yes"/>
      <point x="146" y="179"/>
      <point x="256" y="-24"/>
      <point x="775" y="-24" type="curve"/>
      <point x="1293" y="-24"/>
      <point x="1386" y="196"/>
      <point x="1386" y="483" type="curve" smooth="yes"/>
      <point x="1386" y="1490" type="line"/>
    </contour>
  </outline>
</glyph>
<glyph name="asciicircum" format="1">
  <advance width="1012"/>
  <unicode hex="005E"/>
  <outline>
    <contour>
      <point x="54" y="751" type="line"/>
      <point x="323" y="751" type="line"/>
      <point x="500" y="1096" type="line"/>
      <point x="679" y="751" type="line"/>
      <point x="948" y="751" type="line"/>
      <point x="707" y="1310" type="line"/>
      <point x="295" y="1310" type="line"/>
    </contour>
  </outline>
</glyph>
<glyph name="i" format="1">
  <advance width="564"/>
  <unicode hex="0069"/>
  <outline>
    <contour>
      <point x="131" y="0" type="line"/>
      <point x="441" y="0" type="line"/>
      <point x="441" y="1080" type="line"/>
      <point x="131" y="1080" type="line"/>
    </contour>
    <contour>
      <point x="131" y="1174" type="line"/>
      <point x="441" y="1174" type="line"/>
      <point x="441" y="1435" type="line"/>
      <point x="131" y="1435" type="line"/>
    </contour>
  </outline>
</glyph>
<glyph name="m" format="1">
  <advance width="1780"/>
  <unicode hex="006D"/>
  <outline>
    <contour>
      <point x="1048" y="760" type="line"/>
      <point x="1048" y="865"/>
      <point x="1157" y="894"/>
      <point x="1218" y="894" type="curve" smooth="yes"/>
      <point x="1282" y="894"/>
      <point x="1355" y="879"/>
      <point x="1355" y="763" type="curve" smooth="yes"/>
      <point x="1355" y="0" type="line"/>
      <point x="1666" y="0" type="line"/>
      <point x="1666" y="804" type="line" smooth="yes"/>
      <point x="1666" y="991"/>
      <point x="1528" y="1104"/>
      <point x="1346" y="1104" type="curve" smooth="yes"/>
      <point x="1199" y="1104"/>
      <point x="1074" y="1034"/>
      <point x="1016" y="961" type="curve" smooth="yes"/>
      <point x="925" y="859" type="line"/>
    </contour>
    <contour>
      <point x="121" y="0" type="line"/>
      <point x="431" y="0" type="line"/>
      <point x="431" y="760" type="line" smooth="yes"/>
      <point x="431" y="865"/>
      <point x="540" y="894"/>
      <point x="601" y="894" type="curve" smooth="yes"/>
      <point x="665" y="894"/>
      <point x="738" y="879"/>
      <point x="738" y="763" type="curve" smooth="yes"/>
      <point x="738" y="0" type="line"/>
      <point x="1049" y="0" type="line"/>
      <point x="1049" y="804" type="line" smooth="yes"/>
      <point x="1049" y="991"/>
      <point x="920" y="1104"/>
      <point x="738" y="1104" type="curve" smooth="yes"/>
      <point x="591" y="1104"/>
      <point x="469" y="1031"/>
      <point x="431" y="944" type="curve"/>
      <point x="431" y="1080" type="line"/>
      <point x="121" y="1080" type="line"/>
    </contour>
  </outline>
</glyph>
<glyph name="brokenbar" format="1">
  <advance width="364"/>
  <unicode hex="00A6"/>
  <outline>
    <contour>
      <point x="81" y="-12" type="line"/>
      <point x="275" y="-12" type="line"/>
      <point x="275" y="538" type="line"/>
      <point x="81" y="538" type="line"/>
    </contour>
    <contour>
      <point x="81" y="745" type="line"/>
      <point x="275" y="745" type="line"/>
      <point x="275" y="1295" type="line"/>
      <point x="81" y="1295" type="line"/>
    </contour>
  </outline>
</glyph>
<glyph name="dieresis" format="1">
  <advance width="942"/>
  <unicode hex="00A8"/>
  <outline>
    <contour>
      <point x="96" y="1235" type="line"/>
      <point x="385" y="1235" type="line"/>
      <point x="385" y="1490" type="line"/>
      <point x="96" y="1490" type="line"/>
    </contour>
    <contour>
      <point x="608" y="1235" type="line"/>
      <point x="898" y="1235" type="line"/>
      <point x="898" y="1490" type="line"/>
      <point x="608" y="1490" type="line"/>
    </contour>
  </outline>
</glyph>
<glyph name="degree" format="1">
  <advance width="1113"/>
  <unicode hex="00B0"/>
  <outline>
    <contour>
      <point x="550" y="873" type="curve" smooth="yes"/>
      <point x="861" y="873"/>
      <point x="989" y="1003"/>
      <point x="989" y="1207" type="curve" smooth="yes"/>
      <point x="989" y="1411"/>
      <point x="859" y="1540"/>
      <point x="550" y="1540" type="curve" smooth="yes"/>
      <point x="243" y="1540"/>
      <point x="114" y="1411"/>
      <point x="114" y="1207" type="curve" smooth="yes"/>
      <point x="114" y="1004"/>
      <point x="242" y="873"/>
    </contour>
    <contour>
      <point x="550" y="1039" type="curve" smooth="yes"/>
      <point x="376" y="1039"/>
      <point x="298" y="1117"/>
      <point x="298" y="1207" type="curve" smooth="yes"/>
      <point x="298" y="1298"/>
      <point x="376" y="1374"/>
      <point x="550" y="1374" type="curve" smooth="yes"/>
      <point x="727" y="1374"/>
      <point x="804" y="1297"/>
      <point x="804" y="1206" type="curve" smooth="yes"/>
      <point x="804" y="1116"/>
      <point x="726" y="1039"/>
    </contour>
  </outline>
</glyph>
<glyph name="uni00B3" format="1">
  <advance width="685"/>
  <unicode hex="00B3"/>
  <outline>
    <contour>
      <point x="113" y="774" type="line"/>
      <point x="113" y="631"/>
      <point x="190" y="536"/>
      <point x="338" y="536" type="curve" smooth="yes"/>
      <point x="481" y="536"/>
      <point x="565" y="621"/>
      <point x="565" y="762" type="curve" smooth="yes"/>
      <point x="565" y="841"/>
      <point x="527" y="894"/>
      <point x="456" y="923" type="curve"/>
      <point x="528" y="952"/>
      <point x="565" y="1005"/>
      <point x="565" y="1084" type="curve" smooth="yes"/>
      <point x="565" y="1226"/>
      <point x="480" y="1310"/>
      <point x="338" y="1310" type="curve" smooth="yes"/>
      <point x="190" y="1310"/>
      <point x="113" y="1214"/>
      <point x="113" y="1072" type="curve"/>
      <point x="296" y="1072" type="line"/>
      <point x="296" y="1103"/>
      <point x="291" y="1180"/>
      <point x="338" y="1180" type="curve" smooth="yes"/>
      <point x="384" y="1180"/>
      <point x="381" y="1116"/>
      <point x="381" y="1084" type="curve" smooth="yes"/>
      <point x="381" y="1007"/>
      <point x="352" y="989"/>
      <point x="273" y="989" type="curve"/>
      <point x="273" y="858" type="line"/>
      <point x="352" y="858"/>
      <point x="381" y="840"/>
      <point x="381" y="762" type="curve" smooth="yes"/>
      <point x="381" y="731"/>
      <point x="384" y="667"/>
      <point x="338" y="667" type="curve" smooth="yes"/>
      <point x="291" y="667"/>
      <point x="296" y="742"/>
      <point x="296" y="774" type="curve"/>
    </contour>
  </outline>
</glyph>
<glyph name="periodcentered" format="1">
  <advance width="430"/>
  <unicode hex="00B7"/>
  <outline>
    <contour>
      <point x="82" y="562" type="line"/>
      <point x="349" y="562" type="line"/>
      <point x="349" y="823" type="line"/>
      <point x="82" y="823" type="line"/>
    </contour>
  </outline>
</glyph>
<glyph name="uni00B9" format="1">
  <advance width="465"/>
  <unicode hex="00B9"/>
  <outline>
    <contour>
      <point x="164" y="536" type="line"/>
      <point x="348" y="536" type="line"/>
      <point x="348" y="1310" type="line"/>
      <point x="277" y="1310" type="line"/>
      <point x="218" y="1238"/>
      <point x="140" y="1186"/>
      <point x="57" y="1145" type="curve"/>
      <point x="57" y="1019" type="line"/>
      <point x="164" y="1019" type="line"/>
    </contour>
  </outline>
</glyph>
<glyph name="questiondown" format="1">
  <advance width="978"/>
  <unicode hex="00BF"/>
  <outline>
    <contour>
      <point x="1580" y="683" type="line"/>
      <point x="1303" y="683" type="line"/>
      <point x="1303" y="451" type="line"/>
      <point x="1047" y="344"/>
      <point x="940" y="149"/>
      <point x="940" y="-64" type="curve" smooth="yes"/>
      <point x="940" y="-305"/>
      <point x="1080" y="-438"/>
      <point x="1394" y="-438" type="curve" smooth="yes"/>
      <point x="1647" y="-438"/>
      <point x="1756" y="-285"/>
      <point x="1756" y="-85" type="curve" smooth="yes"/>
      <point x="1756" y="-30"/>
      <point x="1748" y="29"/>
      <point x="1732" y="89" type="curve"/>
      <point x="1472" y="39" type="line"/>
      <point x="1482" y="7"/>
      <point x="1488" y="-31"/>
      <point x="1488" y="-64" type="curve" smooth="yes"/>
      <point x="1488" y="-134"/>
      <point x="1459" y="-195"/>
      <point x="1394" y="-195" type="curve" smooth="yes"/>
      <point x="1327" y="-195"/>
      <point x="1279" y="-156"/>
      <point x="1279" y="-80" type="curve" smooth="yes"/>
      <point x="1279" y="103"/>
      <point x="1442" y="268"/>
      <point x="1580" y="362" type="curve"/>
    </contour>
    <contour>
      <point x="1580" y="1080" type="line"/>
      <point x="1303" y="1080" type="line"/>
      <point x="1303" y="812" type="line"/>
      <point x="1580" y="812" type="line"/>
    </contour>
  </outline>
</glyph>
<glyph name="AE" format="1">
  <advance width="1612"/>
  <unicode hex="00C6"/>
  <outline>
    <contour>
      <point x="36" y="0" type="line"/>
      <point x="354" y="0" type="line"/>
      <point x="566" y="319" type="line"/>
      <point x="989" y="319" type="line"/>
      <point x="989" y="0" type="line"/>
      <point x="1588" y="0" type="line"/>
      <point x="1588" y="207" type="line"/>
      <point x="1268" y="207" type="line"/>
      <point x="1268" y="665" type="line"/>
      <point x="1494" y="665" type="line"/>
      <point x="1494" y="877" type="line"/>
      <point x="1268" y="877" type="line"/>
      <point x="1268" y="1283" type="line"/>
      <point x="1588" y="1283" type="line"/>
      <point x="1588" y="1490" type="line"/>
      <point x="934" y="1490" type="line"/>
    </contour>
    <contour>
      <point x="674" y="504" type="line"/>
      <point x="989" y="979" type="line"/>
      <point x="989" y="504" type="line"/>
    </contour>
  </outline>
</glyph>
<glyph name="Oslash" format="1">
  <advance width="1225"/>
  <unicode hex="00D8"/>
  <outline>
    <contour>
      <point x="213" y="-207" type="line"/>
      <point x="293" y="-223" type="line"/>
      <point x="352" y="-8" type="line"/>
      <point x="417" y="-21"/>
      <point x="508" y="-29"/>
      <point x="612" y="-29" type="curve" smooth="yes"/>
      <point x="1050" y="-29"/>
      <point x="1156" y="210"/>
      <point x="1156" y="497" type="curve" smooth="yes"/>
      <point x="1156" y="991" type="line" smooth="yes"/>
      <point x="1156" y="1193"/>
      <point x="1107" y="1365"/>
      <point x="970" y="1454" type="curve"/>
      <point x="1036" y="1694" type="line"/>
      <point x="956" y="1710" type="line"/>
      <point x="895" y="1490" type="line"/>
      <point x="838" y="1508"/>
      <point x="733" y="1518"/>
      <point x="612" y="1518" type="curve" smooth="yes"/>
      <point x="173" y="1518"/>
      <point x="70" y="1286"/>
      <point x="70" y="991" type="curve" smooth="yes"/>
      <point x="70" y="490" type="line" smooth="yes"/>
      <point x="70" y="284"/>
      <point x="124" y="106"/>
      <point x="276" y="22" type="curve"/>
    </contour>
    <contour>
      <point x="855" y="415" type="line"/>
      <point x="855" y="319"/>
      <point x="823" y="195"/>
      <point x="614" y="195" type="curve" smooth="yes"/>
      <point x="404" y="195"/>
      <point x="371" y="319"/>
      <point x="371" y="415" type="curve" smooth="yes"/>
      <point x="371" y="1066" type="line" smooth="yes"/>
      <point x="371" y="1160"/>
      <point x="406" y="1286"/>
      <point x="612" y="1286" type="curve" smooth="yes"/>
      <point x="818" y="1286"/>
      <point x="853" y="1160"/>
      <point x="853" y="1066" type="curve" smooth="yes"/>
    </contour>
  </outline>
</glyph>
<glyph name="ccedilla" format="1">
  <advance width="909"/>
  <unicode hex="00E7"/>
  <outline>
    <contour>
      <point x="270" y="-464" type="line"/>
      <point x="383" y="-464"/>
      <point x="641" y="-464"/>
      <point x="641" y="-300" type="curve" smooth="yes"/>
      <point x="641" y="-206"/>
      <point x="532" y="-142"/>
      <point x="458" y="-107" type="curve"/>
      <point x="458" y="0" type="line"/>
      <point x="317" y="0" type="line"/>
      <point x="317" y="-200" type="line"/>
      <point x="353" y="-213"/>
      <point x="453" y="-246"/>
      <point x="453" y="-296" type="curve" smooth="yes"/>
      <point x="453" y="-341"/>
      <point x="295" y="-331"/>
      <point x="270" y="-331" type="curve"/>
    </contour>
    <contour>
      <point x="947" y="439" type="line"/>
      <point x="645" y="439" type="line"/>
      <point x="645" y="277" type="line" smooth="yes"/>
      <point x="645" y="239"/>
      <point x="639" y="186"/>
      <point x="536" y="186" type="curve" smooth="yes"/>
      <point x="437" y="186"/>
      <point x="422" y="241"/>
      <point x="422" y="277" type="curve" smooth="yes"/>
      <point x="422" y="812" type="line" smooth="yes"/>
      <point x="422" y="847"/>
      <point x="445" y="894"/>
      <point x="536" y="894" type="curve" smooth="yes"/>
      <point x="630" y="894"/>
      <point x="645" y="849"/>
      <point x="645" y="812" type="curve" smooth="yes"/>
      <point x="645" y="645" type="line"/>
      <point x="947" y="645" type="line"/>
      <point x="947" y="740" type="line" smooth="yes"/>
      <point x="947" y="962"/>
      <point x="880" y="1104"/>
      <point x="532" y="1104" type="curve" smooth="yes"/>
      <point x="248" y="1104"/>
      <point x="112" y="961"/>
      <point x="112" y="740" type="curve" smooth="yes"/>
      <point x="112" y="281" type="line" smooth="yes"/>
      <point x="112" y="96"/>
      <point x="310" y="-24"/>
      <point x="535" y="-24" type="curve" smooth="yes"/>
      <point x="825" y="-24"/>
      <point x="947" y="96"/>
      <point x="947" y="281" type="curve" smooth="yes"/>
    </contour>
  </outline>
</glyph>
<glyph name="cacute" format="1">
  <advance width="909"/>
  <unicode hex="0107"/>
  <outline>
    <contour>
      <point x="947" y="439" type="line"/>
      <point x="645" y="439" type="line"/>
      <point x="645" y="277" type="line" smooth="yes"/>
      <point x="645" y="239"/>
      <point x="639" y="186"/>
      <point x="536" y="186" type="curve" smooth="yes"/>
      <point x="437" y="186"/>
      <point x="422" y="241"/>
      <point x="422" y="277" type="curve" smooth="yes"/>
      <point x="422" y="812" type="line" smooth="yes"/>
      <point x="422" y="847"/>
      <point x="445" y="894"/>
      <point x="536" y="894" type="curve" smooth="yes"/>
      <point x="630" y="894"/>
      <point x="645" y="849"/>
      <point x="645" y="812" type="curve" smooth="yes"/>
      <point x="645" y="645" type="line"/>
      <point x="947" y="645" type="line"/>
      <point x="947" y="740" type="line" smooth="yes"/>
      <point x="947" y="962"/>
      <point x="880" y="1104"/>
      <point x="532" y="1104" type="curve" smooth="yes"/>
      <point x="248" y="1104"/>
      <point x="112" y="961"/>
      <point x="112" y="740" type="curve" smooth="yes"/>
      <point x="112" y="281" type="line" smooth="yes"/>
      <point x="112" y="96"/>
      <point x="310" y="-24"/>
      <point x="535" y="-24" type="curve" smooth="yes"/>
      <point x="825" y="-24"/>
      <point x="947" y="96"/>
      <point x="947" y="281" type="curve" smooth="yes"/>
    </contour>
    <contour>
      <point x="312" y="1189" type="line"/>
      <point x="480" y="1189" type="line"/>
      <point x="710" y="1554" type="line"/>
      <point x="424" y="1554" type="line"/>
    </contour>
  </outline>
</glyph>
<glyph name="dcaron" format="1">
  <advance width="986"/>
  <unicode hex="010F"/>
  <outline>
    <contour>
      <point x="428" y="281" type="curve" smooth="yes"/>
      <point x="428" y="789" type="line" smooth="yes"/>
      <point x="428" y="837"/>
      <point x="450" y="894"/>
      <point x="534" y="894" type="curve" smooth="yes"/>
      <point x="600" y="894"/>
      <point x="656" y="848"/>
      <point x="656" y="813" type="curve" smooth="yes"/>
      <point x="656" y="253" type="line" smooth="yes"/>
      <point x="656" y="219"/>
      <point x="585" y="181"/>
      <point x="525" y="181" type="curve" smooth="yes"/>
      <point x="453" y="181"/>
      <point x="428" y="221"/>
    </contour>
    <contour>
      <point x="967" y="0" type="line"/>
      <point x="967" y="1490" type="line"/>
      <point x="656" y="1490" type="line"/>
      <point x="656" y="1007" type="line"/>
      <point x="622" y="1040"/>
      <point x="570" y="1105"/>
      <point x="430" y="1105" type="curve" smooth="yes"/>
      <point x="243" y="1105"/>
      <point x="118" y="977"/>
      <point x="118" y="828" type="curve" smooth="yes"/>
      <point x="118" y="240" type="line" smooth="yes"/>
      <point x="118" y="87"/>
      <point x="266" y="-25"/>
      <point x="410" y="-25" type="curve" smooth="yes"/>
      <point x="530" y="-25"/>
      <point x="608" y="21"/>
      <point x="656" y="81" type="curve"/>
      <point x="656" y="0" type="line"/>
    </contour>
    <contour>
      <point x="932" y="1025" type="line"/>
      <point x="1166" y="990"/>
      <point x="1142" y="1206"/>
      <point x="1142" y="1489" type="curve"/>
      <point x="875" y="1489" type="line"/>
      <point x="875" y="1226" type="line"/>
      <point x="966" y="1226" type="line"/>
      <point x="965" y="1156"/>
      <point x="959" y="1162"/>
      <point x="899" y="1162" type="curve"/>
    </contour>
  </outline>
</glyph>
<glyph name="iogonek" format="1">
  <advance width="437"/>
  <unicode hex="012F"/>
  <outline>
    <contour>
      <point x="430" y="-296" type="line"/>
      <point x="366" y="-296"/>
      <point x="271" y="-297"/>
      <point x="271" y="-199" type="curve" smooth="yes"/>
      <point x="271" y="-123"/>
      <point x="305" y="-58"/>
      <point x="330" y="13" type="curve"/>
      <point x="208" y="13" type="line"/>
      <point x="143" y="-49"/>
      <point x="83" y="-153"/>
      <point x="83" y="-244" type="curve" smooth="yes"/>
      <point x="83" y="-424"/>
      <point x="278" y="-432"/>
      <point x="413" y="-429" type="curve"/>
    </contour>
    <contour>
      <point x="131" y="0" type="line"/>
      <point x="441" y="0" type="line"/>
      <point x="441" y="1080" type="line"/>
      <point x="131" y="1080" type="line"/>
    </contour>
    <contour>
      <point x="131" y="1174" type="line"/>
      <point x="441" y="1174" type="line"/>
      <point x="441" y="1435" type="line"/>
      <point x="131" y="1435" type="line"/>
    </contour>
  </outline>
</glyph>
<glyph name="IJ" format="1">
  <advance width="1050"/>
  <unicode hex="0132"/>
  <outline>
    <contour>
      <point x="478" y="-28" type="line"/>
      <point x="626" y="-28" type="line" smooth="yes"/>
      <point x="907" y="-28"/>
      <point x="961" y="100"/>
      <point x="961" y="357" type="curve" smooth="yes"/>
      <point x="961" y="1490" type="line"/>
      <point x="660" y="1490" type="line"/>
      <point x="660" y="360" type="line" smooth="yes"/>
      <point x="660" y="212"/>
      <point x="622" y="182"/>
      <point x="478" y="184" type="curve"/>
    </contour>
    <contour>
      <point x="89" y="0" type="line"/>
      <point x="390" y="0" type="line"/>
      <point x="390" y="1490" type="line"/>
      <point x="89" y="1490" type="line"/>
    </contour>
  </outline>
</glyph>
<glyph name="kcommaaccent" format="1">
  <advance width="954"/>
  <unicode hex="0137"/>
  <outline>
    <contour>
      <point x="82" y="0" type="line"/>
      <point x="361" y="0" type="line"/>
      <point x="361" y="419" type="line"/>
      <point x="428" y="482" type="line"/>
      <point x="684" y="0" type="line"/>
      <point x="973" y="0" type="line"/>
      <point x="708" y="624" type="line"/>
      <point x="974" y="1080" type="line"/>
      <point x="668" y="1080" type="line"/>
      <point x="361" y="705" type="line"/>
      <point x="361" y="1490" type="line"/>
      <point x="82" y="1490" type="line"/>
    </contour>
  </outline>
</glyph>
<glyph name="Lcommaaccent" format="1">
  <advance width="767"/>
  <unicode hex="013B"/>
  <outline>
    <contour>
      <point x="89" y="0" type="line"/>
      <point x="760" y="0" type="line"/>
      <point x="760" y="207" type="line"/>
      <point x="390" y="207" type="line"/>
      <point x="390" y="1490" type="line"/>
      <point x="89" y="1490" type="line"/>
    </contour>
  </outline>
</glyph>
<glyph name="Ubreve" format="1">
  <advance width="1373"/>
  <unicode hex="016C"/>
  <outline>
    <contour>
      <point x="478" y="1805" type="line"/>
      <point x="478" y="1683"/>
      <point x="565" y="1600"/>
      <point x="687" y="1600" type="curve" smooth="yes"/>
      <point x="809" y="1600"/>
      <point x="896" y="1683"/>
      <point x="896" y="1805" type="curve"/>
      <point x="754" y="1805" type="line"/>
      <point x="754" y="1764"/>
      <point x="738" y="1700"/>
      <point x="687" y="1700" type="curve" smooth="yes"/>
      <point x="636" y="1700"/>
      <point x="620" y="1764"/>
      <point x="620" y="1805" type="curve"/>
    </contour>
    <contour>
      <point x="925" y="1490" type="line"/>
      <point x="925" y="404" type="line" smooth="yes"/>
      <point x="925" y="286"/>
      <point x="911" y="237"/>
      <point x="701" y="237" type="curve" smooth="yes"/>
      <point x="494" y="237"/>
      <point x="477" y="285"/>
      <point x="477" y="404" type="curve" smooth="yes"/>
      <point x="477" y="1490" type="line"/>
      <point x="139" y="1490" type="line"/>
      <point x="139" y="473" type="line" smooth="yes"/>
      <point x="139" y="186"/>
      <point x="212" y="-29"/>
      <point x="648" y="-29" type="curve" smooth="yes"/>
      <point x="753" y="-29" type="line" smooth="yes"/>
      <point x="1189" y="-29"/>
      <point x="1264" y="203"/>
      <point x="1264" y="490" type="curve" smooth="yes"/>
      <point x="1264" y="1490" type="line"/>
    </contour>
  </outline>
</glyph>
<glyph name="Uring" format="1">
  <advance width="1373"/>
  <unicode hex="016E"/>
  <outline>
    <contour>
      <point x="687" y="1700" type="curve" smooth="yes"/>
      <point x="637" y="1700"/>
      <point x="620" y="1758"/>
      <point x="620" y="1799" type="curve" smooth="yes"/>
      <point x="620" y="1839"/>
      <point x="638" y="1895"/>
      <point x="687" y="1895" type="curve" smooth="yes"/>
      <point x="735" y="1895"/>
      <point x="751" y="1835"/>
      <point x="751" y="1797" type="curve" smooth="yes"/>
      <point x="751" y="1758"/>
      <point x="735" y="1700"/>
    </contour>
    <contour>
      <point x="477" y="1798" type="curve" smooth="yes"/>
      <point x="477" y="1675"/>
      <point x="568" y="1600"/>
      <point x="687" y="1600" type="curve" smooth="yes"/>
      <point x="806" y="1600"/>
      <point x="896" y="1675"/>
      <point x="896" y="1798" type="curve" smooth="yes"/>
      <point x="896" y="1920"/>
      <point x="805" y="1995"/>
      <point x="687" y="1995" type="curve" smooth="yes"/>
      <point x="568" y="1995"/>
      <point x="477" y="1921"/>
    </contour>
    <contour>
      <point x="925" y="1490" type="line"/>
      <point x="925" y="404" type="line" smooth="yes"/>
      <point x="925" y="286"/>
      <point x="911" y="237"/>
      <point x="701" y="237" type="curve" smooth="yes"/>
      <point x="494" y="237"/>
      <point x="477" y="285"/>
      <point x="477" y="404" type="curve" smooth="yes"/>
      <point x="477" y="1490" type="line"/>
      <point x="139" y="1490" type="line"/>
      <point x="139" y="473" type="line" smooth="yes"/>
      <point x="139" y="186"/>
      <point x="212" y="-29"/>
      <point x="648" y="-29" type="curve" smooth="yes"/>
      <point x="753" y="-29" type="line" smooth="yes"/>
      <point x="1189" y="-29"/>
      <point x="1264" y="203"/>
      <point x="1264" y="490" type="curve" smooth="yes"/>
      <point x="1264" y="1490" type="line"/>
    </contour>
  </outline>
</glyph>
<glyph name="uhungarumlaut" format="1">
  <advance width="992"/>
  <unicode hex="0171"/>
  <outline>
    <contour>
      <point x="975" y="1080" type="line"/>
      <point x="664" y="1080" type="line"/>
      <point x="664" y="266" type="line" smooth="yes"/>
      <point x="664" y="229"/>
      <point x="595" y="186"/>
      <point x="534" y="186" type="curve" smooth="yes"/>
      <point x="485" y="186"/>
      <point x="441" y="213"/>
      <point x="441" y="290" type="curve" smooth="yes"/>
      <point x="441" y="1080" type="line"/>
      <point x="131" y="1080" type="line"/>
      <point x="131" y="226" type="line" smooth="yes"/>
      <point x="131" y="89"/>
      <point x="225" y="-24"/>
      <point x="386" y="-24" type="curve" smooth="yes"/>
      <point x="532" y="-24"/>
      <point x="606" y="30"/>
      <point x="664" y="76" type="curve"/>
      <point x="664" y="0" type="line"/>
      <point x="975" y="0" type="line"/>
    </contour>
    <contour>
      <point x="197" y="1189" type="line"/>
      <point x="366" y="1189" type="line"/>
      <point x="659" y="1554" type="line"/>
      <point x="310" y="1554" type="line"/>
    </contour>
    <contour>
      <point x="504" y="1189" type="line"/>
      <point x="792" y="1189" type="line"/>
      <point x="970" y="1554" type="line"/>
      <point x="709" y="1554" type="line"/>
    </contour>
  </outline>
</glyph>
<glyph name="zacute" format="1">
  <advance width="815"/>
  <unicode hex="017A"/>
  <outline>
    <contour>
      <point x="47" y="0" type="line"/>
      <point x="775" y="0" type="line"/>
      <point x="775" y="202" type="line"/>
      <point x="398" y="202" type="line"/>
      <point x="775" y="895" type="line"/>
      <point x="775" y="1080" type="line"/>
      <point x="94" y="1080" type="line"/>
      <point x="94" y="879" type="line"/>
      <point x="419" y="879" type="line"/>
      <point x="47" y="189" type="line"/>
    </contour>
    <contour>
      <point x="234" y="1153" type="line"/>
      <point x="402" y="1153" type="line"/>
      <point x="632" y="1518" type="line"/>
      <point x="346" y="1518" type="line"/>
    </contour>
  </outline>
</glyph>
<glyph name="Zcaron" format="1">
  <advance width="1050"/>
  <unicode hex="017D"/>
  <outline>
    <contour>
      <point x="336" y="1556" type="line"/>
      <point x="712" y="1556" type="line"/>
      <point x="882" y="1892" type="line"/>
      <point x="635" y="1892" type="line"/>
      <point x="523" y="1726" type="line"/>
      <point x="415" y="1892" type="line"/>
      <point x="169" y="1892" type="line"/>
    </contour>
    <contour>
      <point x="66" y="0" type="line"/>
      <point x="979" y="0" type="line"/>
      <point x="979" y="207" type="line"/>
      <point x="431" y="207" type="line"/>
      <point x="979" y="1299" type="line"/>
      <point x="979" y="1489" type="line"/>
      <point x="112" y="1489" type="line"/>
      <point x="112" y="1282" type="line"/>
      <point x="611" y="1282" type="line"/>
      <point x="66" y="189" type="line"/>
    </contour>
  </outline>
</glyph>
<glyph name="zcaron" format="1">
  <advance width="815"/>
  <unicode hex="017E"/>
  <outline>
    <contour>
      <point x="47" y="0" type="line"/>
      <point x="775" y="0" type="line"/>
      <point x="775" y="202" type="line"/>
      <point x="398" y="202" type="line"/>
      <point x="775" y="895" type="line"/>
      <point x="775" y="1080" type="line"/>
      <point x="94" y="1080" type="line"/>
      <point x="94" y="879" type="line"/>
      <point x="419" y="879" type="line"/>
      <point x="47" y="189" type="line"/>
    </contour>
    <contour>
      <point x="256" y="1146" type="line"/>
      <point x="632" y="1146" type="line"/>
      <point x="802" y="1482" type="line"/>
      <point x="555" y="1482" type="line"/>
      <point x="443" y="1316" type="line"/>
      <point x="335" y="1482" type="line"/>
      <point x="89" y="1482" type="line"/>
    </contour>
  </outline>
</glyph>
<glyph name="uni01C4" format="1">
  <advance width="2257"/>
  <unicode hex="01C4"/>
  <outline>
    <contour>
      <point x="1543" y="1556" type="line"/>
      <point x="1919" y="1556" type="line"/>
      <point x="2089" y="1892" type="line"/>
      <point x="1842" y="1892" type="line"/>
      <point x="1730" y="1726" type="line"/>
      <point x="1622" y="1892" type="line"/>
      <point x="1376" y="1892" type="line"/>
    </contour>
    <contour>
      <point x="1273" y="0" type="line"/>
      <point x="2186" y="0" type="line"/>
      <point x="2186" y="207" type="line"/>
      <point x="1638" y="207" type="line"/>
      <point x="2186" y="1299" type="line"/>
      <point x="2186" y="1489" type="line"/>
      <point x="1319" y="1489" type="line"/>
      <point x="1319" y="1282" type="line"/>
      <point x="1818" y="1282" type="line"/>
      <point x="1273" y="189" type="line"/>
    </contour>
    <contour>
      <point x="930" y="433" type="line"/>
      <point x="930" y="315"/>
      <point x="919" y="266"/>
      <point x="709" y="266" type="curve" smooth="yes"/>
      <point x="501" y="266" type="line"/>
      <point x="501" y="1223" type="line"/>
      <point x="709" y="1223" type="line" smooth="yes"/>
      <point x="916" y="1223"/>
      <point x="930" y="1165"/>
      <point x="930" y="1053" type="curve" smooth="yes"/>
    </contour>
    <contour>
      <point x="758" y="0" type="line"/>
      <point x="1194" y="0"/>
      <point x="1269" y="232"/>
      <point x="1269" y="519" type="curve" smooth="yes"/>
      <point x="1269" y="962" type="line" smooth="yes"/>
      <point x="1269" y="1257"/>
      <point x="1197" y="1490"/>
      <point x="758" y="1490" type="curve" smooth="yes"/>
      <point x="162" y="1490" type="line"/>
      <point x="162" y="0" type="line"/>
    </contour>
  </outline>
</glyph>
<glyph name="uni01CB" format="1">
  <advance width="1808"/>
  <unicode hex="01CB"/>
  <outline>
    <contour>
      <point x="1318" y="-235" type="line"/>
      <point x="1366" y="-247"/>
      <point x="1416" y="-257"/>
      <point x="1466" y="-257" type="curve" smooth="yes"/>
      <point x="1641" y="-257"/>
      <point x="1731" y="-148"/>
      <point x="1731" y="22" type="curve" smooth="yes"/>
      <point x="1731" y="1080" type="line"/>
      <point x="1453" y="1080" type="line"/>
      <point x="1453" y="46" type="line" smooth="yes"/>
      <point x="1453" y="3"/>
      <point x="1441" y="-46"/>
      <point x="1390" y="-46" type="curve" smooth="yes"/>
      <point x="1366" y="-46"/>
      <point x="1341" y="-40"/>
      <point x="1318" y="-33" type="curve"/>
    </contour>
    <contour>
      <point x="1453" y="1174" type="line"/>
      <point x="1731" y="1174" type="line"/>
      <point x="1731" y="1435" type="line"/>
      <point x="1453" y="1435" type="line"/>
    </contour>
    <contour>
      <point x="162" y="0" type="line"/>
      <point x="466" y="0" type="line"/>
      <point x="466" y="868" type="line"/>
      <point x="1093" y="0" type="line"/>
      <point x="1287" y="0" type="line"/>
      <point x="1287" y="1490" type="line"/>
      <point x="986" y="1490" type="line"/>
      <point x="986" y="645" type="line"/>
      <point x="382" y="1490" type="line"/>
      <point x="162" y="1490" type="line"/>
    </contour>
  </outline>
</glyph>
<glyph name="uni01F4" format="1">
  <advance width="1376"/>
  <unicode hex="01F4"/>
  <outline>
    <contour>
      <point x="490" y="1563" type="line"/>
      <point x="658" y="1563" type="line"/>
      <point x="888" y="1928" type="line"/>
      <point x="602" y="1928" type="line"/>
    </contour>
    <contour>
      <point x="70" y="466" type="line"/>
      <point x="70" y="235"/>
      <point x="170" y="-29"/>
      <point x="512" y="-29" type="curve" smooth="yes"/>
      <point x="689" y="-29"/>
      <point x="877" y="25"/>
      <point x="968" y="104" type="curve"/>
      <point x="1037" y="0" type="line"/>
      <point x="1300" y="0" type="line"/>
      <point x="1300" y="766" type="line"/>
      <point x="560" y="766" type="line"/>
      <point x="560" y="550" type="line"/>
      <point x="867" y="550" type="line"/>
      <point x="867" y="431" type="line" smooth="yes"/>
      <point x="867" y="334"/>
      <point x="832" y="204"/>
      <point x="619" y="204" type="curve" smooth="yes"/>
      <point x="406" y="204"/>
      <point x="371" y="325"/>
      <point x="371" y="423" type="curve" smooth="yes"/>
      <point x="371" y="1066" type="line" smooth="yes"/>
      <point x="371" y="1164"/>
      <point x="407" y="1286"/>
      <point x="619" y="1286" type="curve" smooth="yes"/>
      <point x="847" y="1286"/>
      <point x="868" y="1148"/>
      <point x="868" y="1039" type="curve" smooth="yes"/>
      <point x="868" y="934" type="line"/>
      <point x="1288" y="934" type="line"/>
      <point x="1288" y="1022" type="line" smooth="yes"/>
      <point x="1288" y="1309"/>
      <point x="1176" y="1518"/>
      <point x="619" y="1518" type="curve" smooth="yes"/>
      <point x="174" y="1518"/>
      <point x="70" y="1290"/>
      <point x="70" y="991" type="curve" smooth="yes"/>
    </contour>
  </outline>
</glyph>
<glyph name="uni020E" format="1">
  <advance width="1354"/>
  <unicode hex="020E"/>
  <outline>
    <contour>
      <point x="439" y="1599" type="line"/>
      <point x="439" y="1640"/>
      <point x="455" y="1704"/>
      <point x="506" y="1704" type="curve" smooth="yes"/>
      <point x="557" y="1704"/>
      <point x="573" y="1640"/>
      <point x="573" y="1599" type="curve"/>
      <point x="715" y="1599" type="line"/>
      <point x="715" y="1721"/>
      <point x="628" y="1804"/>
      <point x="506" y="1804" type="curve" smooth="yes"/>
      <point x="384" y="1804"/>
      <point x="297" y="1721"/>
      <point x="297" y="1599" type="curve"/>
    </contour>
    <contour>
      <point x="917" y="404" type="line"/>
      <point x="917" y="286"/>
      <point x="903" y="237"/>
      <point x="693" y="237" type="curve" smooth="yes"/>
      <point x="486" y="237"/>
      <point x="469" y="285"/>
      <point x="469" y="404" type="curve" smooth="yes"/>
      <point x="469" y="1082" type="line" smooth="yes"/>
      <point x="469" y="1200"/>
      <point x="488" y="1252"/>
      <point x="693" y="1252" type="curve" smooth="yes"/>
      <point x="900" y="1252"/>
      <point x="917" y="1194"/>
      <point x="917" y="1082" type="curve" smooth="yes"/>
    </contour>
    <contour>
      <point x="745" y="-29" type="line"/>
      <point x="1181" y="-29"/>
      <point x="1255" y="203"/>
      <point x="1255" y="490" type="curve" smooth="yes"/>
      <point x="1255" y="991" type="line" smooth="yes"/>
      <point x="1255" y="1286"/>
      <point x="1184" y="1518"/>
      <point x="745" y="1518" type="curve" smooth="yes"/>
      <point x="640" y="1518" type="line" smooth="yes"/>
      <point x="201" y="1518"/>
      <point x="131" y="1302"/>
      <point x="131" y="1007" type="curve" smooth="yes"/>
      <point x="131" y="473" type="line" smooth="yes"/>
      <point x="131" y="186"/>
      <point x="204" y="-29"/>
      <point x="640" y="-29" type="curve" smooth="yes"/>
    </contour>
  </outline>
</glyph>
<glyph name="scommaaccent" format="1">
  <advance width="963"/>
  <unicode hex="0219"/>
  <outline>
    <contour>
      <point x="31" y="261" type="line"/>
      <point x="77" y="96"/>
      <point x="203" y="-24"/>
      <point x="503" y="-24" type="curve" smooth="yes"/>
      <point x="801" y="-24"/>
      <point x="945" y="99"/>
      <point x="945" y="277" type="curve"/>
      <point x="913" y="405"/>
      <point x="813" y="513"/>
      <point x="718" y="599" type="curve"/>
      <point x="628" y="645" type="line" smooth="yes"/>
      <point x="497" y="706"/>
      <point x="357" y="775"/>
      <point x="357" y="830" type="curve" smooth="yes"/>
      <point x="357" y="862"/>
      <point x="394" y="898"/>
      <point x="468" y="898" type="curve" smooth="yes"/>
      <point x="604" y="898"/>
      <point x="679" y="793"/>
      <point x="718" y="733" type="curve"/>
      <point x="919" y="802" type="line"/>
      <point x="877" y="955"/>
      <point x="752" y="1104"/>
      <point x="482" y="1104" type="curve" smooth="yes"/>
      <point x="188" y="1104"/>
      <point x="17" y="1007"/>
      <point x="17" y="813" type="curve" smooth="yes"/>
      <point x="17" y="679"/>
      <point x="109" y="580"/>
      <point x="206" y="496" type="curve"/>
      <point x="277" y="458" type="line" smooth="yes"/>
      <point x="433" y="384"/>
      <point x="575" y="318"/>
      <point x="575" y="242" type="curve" smooth="yes"/>
      <point x="575" y="207"/>
      <point x="555" y="180"/>
      <point x="481" y="180" type="curve" smooth="yes"/>
      <point x="356" y="180"/>
      <point x="298" y="282"/>
      <point x="265" y="337" type="curve"/>
    </contour>
  </outline>
</glyph>
<glyph name="circumflex" format="1">
  <advance width="875"/>
  <unicode hex="02C6"/>
  <outline>
    <contour>
      <point x="89" y="1153" type="line"/>
      <point x="314" y="1153" type="line"/>
      <point x="445" y="1318" type="line"/>
      <point x="574" y="1153" type="line"/>
      <point x="801" y="1153" type="line"/>
      <point x="561" y="1489" type="line"/>
      <point x="315" y="1489" type="line"/>
    </contour>
  </outline>
</glyph>
<glyph name="uni1E0A" format="1">
  <advance width="1207"/>
  <unicode hex="1E0A"/>
  <outline>
    <contour>
      <point x="471" y="1650" type="line"/>
      <point x="738" y="1650" type="line"/>
      <point x="738" y="1914" type="line"/>
      <point x="471" y="1914" type="line"/>
    </contour>
    <contour>
      <point x="930" y="433" type="line"/>
      <point x="930" y="315"/>
      <point x="919" y="266"/>
      <point x="709" y="266" type="curve" smooth="yes"/>
      <point x="501" y="266" type="line"/>
      <point x="501" y="1223" type="line"/>
      <point x="709" y="1223" type="line" smooth="yes"/>
      <point x="916" y="1223"/>
      <point x="930" y="1165"/>
      <point x="930" y="1053" type="curve" smooth="yes"/>
    </contour>
    <contour>
      <point x="758" y="0" type="line"/>
      <point x="1194" y="0"/>
      <point x="1269" y="232"/>
      <point x="1269" y="519" type="curve" smooth="yes"/>
      <point x="1269" y="962" type="line" smooth="yes"/>
      <point x="1269" y="1257"/>
      <point x="1197" y="1490"/>
      <point x="758" y="1490" type="curve" smooth="yes"/>
      <point x="162" y="1490" type="line"/>
      <point x="162" y="0" type="line"/>
    </contour>
  </outline>
</glyph>
<glyph name="uni1E41" format="1">
  <advance width="1516"/>
  <unicode hex="1E41"/>
  <outline>
    <contour>
      <point x="132" y="0" type="line"/>
      <point x="434" y="0" type="line"/>
      <point x="434" y="814" type="line" smooth="yes"/>
      <point x="434" y="851"/>
      <point x="501" y="894"/>
      <point x="562" y="894" type="curve" smooth="yes"/>
      <point x="611" y="894"/>
      <point x="655" y="867"/>
      <point x="655" y="790" type="curve" smooth="yes"/>
      <point x="655" y="0" type="line"/>
      <point x="957" y="0" type="line"/>
      <point x="957" y="822" type="line"/>
      <point x="965" y="857"/>
      <point x="1026" y="894"/>
      <point x="1083" y="894" type="curve" smooth="yes"/>
      <point x="1132" y="894"/>
      <point x="1176" y="867"/>
      <point x="1176" y="790" type="curve" smooth="yes"/>
      <point x="1176" y="0" type="line"/>
      <point x="1478" y="0" type="line"/>
      <point x="1478" y="871" type="line" smooth="yes"/>
      <point x="1478" y="979"/>
      <point x="1423" y="1104"/>
      <point x="1262" y="1104" type="curve" smooth="yes"/>
      <point x="1128" y="1104"/>
      <point x="1021" y="1064"/>
      <point x="930" y="994" type="curve"/>
      <point x="899" y="1056"/>
      <point x="840" y="1104"/>
      <point x="741" y="1104" type="curve" smooth="yes"/>
      <point x="603" y="1104"/>
      <point x="527" y="1070"/>
      <point x="434" y="1004" type="curve"/>
      <point x="434" y="1080" type="line"/>
      <point x="132" y="1080" type="line"/>
    </contour>
    <contour>
      <point x="628" y="1205" type="line"/>
      <point x="895" y="1205" type="line"/>
      <point x="895" y="1469" type="line"/>
      <point x="628" y="1469" type="line"/>
    </contour>
  </outline>
</glyph>
<glyph name="uni1E6B" format="1">
  <advance width="552"/>
  <unicode hex="1E6B"/>
  <outline>
    <contour>
      <point x="146" y="894" type="line"/>
      <point x="146" y="338" type="line" smooth="yes"/>
      <point x="146" y="115"/>
      <point x="190" y="-20"/>
      <point x="422" y="-20" type="curve" smooth="yes"/>
      <point x="476" y="-20"/>
      <point x="569" y="-13"/>
      <point x="645" y="2" type="curve"/>
      <point x="645" y="220" type="line"/>
      <point x="618" y="216"/>
      <point x="562" y="215"/>
      <point x="535" y="215" type="curve" smooth="yes"/>
      <point x="476" y="215"/>
      <point x="458" y="248"/>
      <point x="458" y="304" type="curve" smooth="yes"/>
      <point x="458" y="894" type="line"/>
      <point x="645" y="894" type="line"/>
      <point x="645" y="1080" type="line"/>
      <point x="458" y="1080" type="line"/>
      <point x="458" y="1435" type="line"/>
      <point x="173" y="1435" type="line"/>
      <point x="146" y="1080" type="line"/>
      <point x="51" y="1080" type="line"/>
      <point x="51" y="894" type="line"/>
    </contour>
    <contour>
      <point x="141" y="1535" type="line"/>
      <point x="408" y="1535" type="line"/>
      <point x="408" y="1799" type="line"/>
      <point x="141" y="1799" type="line"/>
    </contour>
  </outline>
</glyph>
<glyph name="wdieresis" format="1">
  <advance width="1222"/>
  <unicode hex="1E85"/>
  <outline>
    <contour>
      <point x="180" y="0" type="line"/>
      <point x="420" y="0" type="line"/>
      <point x="617" y="638" type="line"/>
      <point x="800" y="0" type="line"/>
      <point x="1040" y="0" type="line"/>
      <point x="1200" y="1080" type="line"/>
      <point x="985" y="1080" type="line"/>
      <point x="890" y="401" type="line"/>
      <point x="809" y="1080" type="line"/>
      <point x="438" y="1080" type="line"/>
      <point x="341" y="414" type="line"/>
      <point x="255" y="1080" type="line"/>
      <point x="22" y="1080" type="line"/>
    </contour>
    <contour>
      <point x="214" y="1189" type="line"/>
      <point x="503" y="1189" type="line"/>
      <point x="503" y="1444" type="line"/>
      <point x="214" y="1444" type="line"/>
    </contour>
    <contour>
      <point x="726" y="1189" type="line"/>
      <point x="1016" y="1189" type="line"/>
      <point x="1016" y="1444" type="line"/>
      <point x="726" y="1444" type="line"/>
    </contour>
  </outline>
</glyph>
<glyph name="bullet" format="1">
  <advance width="988"/>
  <unicode hex="2022"/>
  <outline>
    <contour>
      <point x="493" y="277" type="curve" smooth="yes"/>
      <point x="733" y="277"/>
      <point x="889" y="384"/>
      <point x="889" y="594" type="curve" smooth="yes"/>
      <point x="889" y="807"/>
      <point x="734" y="914"/>
      <point x="493" y="914" type="curve" smooth="yes"/>
      <point x="255" y="914"/>
      <point x="100" y="807"/>
      <point x="100" y="594" type="curve" smooth="yes"/>
      <point x="100" y="383"/>
      <point x="254" y="277"/>
    </contour>
  </outline>
</glyph>
<glyph name="guilsinglleft" format="1">
  <advance width="511"/>
  <unicode hex="2039"/>
  <outline>
    <contour>
      <point x="436" y="53" type="line"/>
      <point x="436" y="318" type="line"/>
      <point x="224" y="530" type="line"/>
      <point x="436" y="741" type="line"/>
      <point x="436" y="1006" type="line"/>
      <point x="65" y="583" type="line"/>
      <point x="65" y="477" type="line"/>
    </contour>
  </outline>
</glyph>
<glyph name="guilsinglright" format="1">
  <advance width="496"/>
  <unicode hex="203A"/>
  <outline>
    <contour>
      <point x="65" y="53" type="line"/>
      <point x="436" y="477" type="line"/>
      <point x="436" y="583" type="line"/>
      <point x="65" y="1006" type="line"/>
      <point x="65" y="741" type="line"/>
      <point x="277" y="530" type="line"/>
      <point x="65" y="318" type="line"/>
    </contour>
  </outline>
</glyph>
<glyph name="Euro" format="1">
  <advance width="937"/>
  <unicode hex="20AC"/>
  <outline>
    <contour>
      <point x="6" y="425" type="line"/>
      <point x="64" y="425" type="line"/>
      <point x="64" y="419" type="line" smooth="yes"/>
      <point x="74" y="174"/>
      <point x="148" y="-22"/>
      <point x="431" y="-22" type="curve" smooth="yes"/>
      <point x="806" y="-22"/>
      <point x="867" y="225"/>
      <point x="868" y="470" type="curve" smooth="yes"/>
      <point x="868" y="477" type="line"/>
      <point x="638" y="477" type="line"/>
      <point x="638" y="472" type="line" smooth="yes"/>
      <point x="638" y="386"/>
      <point x="628" y="195"/>
      <point x="435" y="195" type="curve" smooth="yes"/>
      <point x="313" y="195"/>
      <point x="306" y="326"/>
      <point x="301" y="421" type="curve"/>
      <point x="301" y="425" type="line"/>
      <point x="463" y="425" type="line"/>
      <point x="463" y="588" type="line"/>
      <point x="299" y="588" type="line"/>
      <point x="299" y="693" type="line"/>
      <point x="463" y="693" type="line"/>
      <point x="463" y="856" type="line"/>
      <point x="299" y="856" type="line"/>
      <point x="299" y="861" type="line" smooth="yes"/>
      <point x="300" y="963"/>
      <point x="295" y="1096"/>
      <point x="429" y="1096" type="curve" smooth="yes"/>
      <point x="600" y="1096"/>
      <point x="623" y="938"/>
      <point x="624" y="859" type="curve" smooth="yes"/>
      <point x="624" y="853" type="line"/>
      <point x="864" y="853" type="line"/>
      <point x="864" y="858" type="line" smooth="yes"/>
      <point x="861" y="1101"/>
      <point x="785" y="1310"/>
      <point x="425" y="1310" type="curve" smooth="yes"/>
      <point x="144" y="1310"/>
      <point x="77" y="1101"/>
      <point x="65" y="861" type="curve"/>
      <point x="65" y="856" type="line"/>
      <point x="6" y="856" type="line"/>
      <point x="6" y="693" type="line"/>
      <point x="63" y="693" type="line"/>
      <point x="63" y="588" type="line"/>
      <point x="6" y="588" type="line"/>
    </contour>
  </outline>
</glyph>
<glyph name="uniFB04" format="1">
  <advance width="1927"/>
  <outline>
    <contour>
      <point x="1570" y="0" type="line"/>
      <point x="1848" y="0" type="line"/>
      <point x="1848" y="1405" type="line"/>
      <point x="1617" y="1424"/>
      <point x="1383" y="1436"/>
      <point x="1176" y="1436" type="curve" smooth="yes"/>
      <point x="924" y="1436"/>
      <point x="882" y="1272"/>
      <point x="877" y="1104" type="curve"/>
      <point x="877" y="1080" type="line"/>
      <point x="396" y="1080" type="line"/>
      <point x="396" y="1130" type="line" smooth="yes"/>
      <point x="396" y="1201"/>
      <point x="433" y="1221"/>
      <point x="512" y="1221" type="curve" smooth="yes"/>
      <point x="540" y="1221"/>
      <point x="643" y="1216"/>
      <point x="643" y="1216" type="curve"/>
      <point x="643" y="1424" type="line"/>
      <point x="643" y="1424"/>
      <point x="468" y="1436"/>
      <point x="357" y="1436" type="curve" smooth="yes"/>
      <point x="154" y="1436"/>
      <point x="123" y="1272"/>
      <point x="118" y="1104" type="curve"/>
      <point x="118" y="1096"/>
      <point x="117" y="1088"/>
      <point x="117" y="1080" type="curve"/>
      <point x="54" y="1080" type="line"/>
      <point x="54" y="894" type="line"/>
      <point x="117" y="894" type="line"/>
      <point x="117" y="0" type="line"/>
      <point x="396" y="0" type="line"/>
      <point x="396" y="894" type="line"/>
      <point x="877" y="894" type="line"/>
      <point x="877" y="0" type="line"/>
      <point x="1156" y="0" type="line"/>
      <point x="1156" y="894" type="line"/>
      <point x="1398" y="894" type="line"/>
      <point x="1398" y="1080" type="line"/>
      <point x="1156" y="1080" type="line"/>
      <point x="1156" y="1130" type="line" smooth="yes"/>
      <point x="1156" y="1201"/>
      <point x="1219" y="1221"/>
      <point x="1361" y="1221" type="curve" smooth="yes"/>
      <point x="1397" y="1221"/>
      <point x="1497" y="1218"/>
      <point x="1570" y="1217" type="curve"/>
    </contour>
  </outline>
</glyph>
